<?xml version="1.0" encoding="iso-8859-1"?>
<!-- Generator: Adobe Illustrator 19.0.0, SVG Export Plug-In . SVG Version: 6.00 Build 0)  -->
<svg version="1.1" id="Capa_1" xmlns="http://www.w3.org/2000/svg" xmlns:xlink="http://www.w3.org/1999/xlink" x="0px" y="0px"
	 viewBox="0 0 512 512" style="enable-background:new 0 0 512 512;" xml:space="preserve">
<g>
	<g>
		<g>
			<path d="M469.333,106.667H42.667C19.135,106.667,0,125.802,0,149.333v213.333c0,23.531,19.135,42.667,42.667,42.667h426.667
				c23.531,0,42.667-19.135,42.667-42.667V149.333C512,125.802,492.865,106.667,469.333,106.667z M490.667,362.667
				c0,11.76-9.573,21.333-21.333,21.333H42.667c-11.76,0-21.333-9.573-21.333-21.333V149.333c0-11.76,9.573-21.333,21.333-21.333
				h426.667c11.76,0,21.333,9.573,21.333,21.333V362.667z"/>
			<path d="M160,224c5.896,0,10.667-4.771,10.667-10.667c0-5.896-4.771-10.667-10.667-10.667h-42.667
				c-5.896,0-10.667,4.771-10.667,10.667v85.333c0,5.896,4.771,10.667,10.667,10.667H160c5.896,0,10.667-4.771,10.667-10.667
				c0-5.896-4.771-10.667-10.667-10.667h-32v-21.333h21.333c5.896,0,10.667-4.771,10.667-10.667s-4.771-10.667-10.667-10.667H128
				V224H160z"/>
			<path d="M245.333,202.667c-5.896,0-10.667,4.771-10.667,10.667v21.333c0,5.885-4.781,10.667-10.667,10.667
				s-10.667-4.781-10.667-10.667v-21.333c0-5.896-4.771-10.667-10.667-10.667c-5.896,0-10.667,4.771-10.667,10.667v21.333
				c0,8.188,3.094,15.667,8.167,21.333c-5.073,5.667-8.167,13.146-8.167,21.333v21.333c0,5.896,4.771,10.667,10.667,10.667
				c5.896,0,10.667-4.771,10.667-10.667v-21.333c0-5.885,4.781-10.667,10.667-10.667s10.667,4.781,10.667,10.667v21.333
				c0,5.896,4.771,10.667,10.667,10.667c5.896,0,10.667-4.771,10.667-10.667v-21.333c0-8.188-3.094-15.667-8.167-21.333
				c5.073-5.667,8.167-13.146,8.167-21.333v-21.333C256,207.438,251.229,202.667,245.333,202.667z"/>
			<path d="M298.667,202.667c-5.896,0-10.667,4.771-10.667,10.667v85.333c0,5.896,4.771,10.667,10.667,10.667
				c5.896,0,10.667-4.771,10.667-10.667v-85.333C309.333,207.438,304.563,202.667,298.667,202.667z"/>
			<path d="M394.667,202.667h-64c-5.896,0-10.667,4.771-10.667,10.667c0,5.896,4.771,10.667,10.667,10.667H352v74.667
				c0,5.896,4.771,10.667,10.667,10.667s10.667-4.771,10.667-10.667V224h21.333c5.896,0,10.667-4.771,10.667-10.667
				C405.333,207.438,400.563,202.667,394.667,202.667z"/>
		</g>
	</g>
</g>
<g>
</g>
<g>
</g>
<g>
</g>
<g>
</g>
<g>
</g>
<g>
</g>
<g>
</g>
<g>
</g>
<g>
</g>
<g>
</g>
<g>
</g>
<g>
</g>
<g>
</g>
<g>
</g>
<g>
</g>
</svg>
